<svg
    viewBox="0 0 132 132"
    fill="none"
    xmlns="http://www.w3.org/2000/svg"
    class="loader-circle-spinner circle--rotation"
>
    <rect
        x="0.5"
        y="0.5"
        width="130"
        height="130"
        rx="65"
        stroke="white"
        stroke-opacity="0.06"
    ></rect>
    <path
        d="M66 0.88644C66 0.396873 66.3969 -0.000622003 66.8865 0.00595244C77.4351 0.147623 87.8007 2.81612 97.1122 7.7932C106.684 12.9096 114.847 20.3078 120.877 29.3324C126.907 38.3569 130.618 48.7294 131.682 59.5309C132.746 70.3324 131.13 81.2295 126.976 91.2571C122.822 101.285 116.26 110.133 107.87 117.019C99.4799 123.904 89.5212 128.614 78.876 130.732C68.2308 132.849 57.2276 132.309 46.8412 129.158C36.7377 126.093 27.5211 120.65 19.962 113.292C19.6112 112.95 19.6116 112.388 19.9578 112.042C20.3039 111.696 20.8648 111.697 21.2157 112.038C28.5686 119.191 37.5313 124.481 47.3559 127.462C57.4633 130.528 68.1708 131.054 78.5301 128.993C88.8894 126.932 98.5806 122.349 106.745 115.648C114.91 108.948 121.296 100.337 125.338 90.5787C129.38 80.8204 130.953 70.216 129.918 59.7046C128.883 49.1933 125.271 39.0995 119.403 30.3173C113.535 21.5352 105.591 14.3357 96.2765 9.35674C87.2221 4.5171 77.1435 1.92055 66.8865 1.779C66.3969 1.77224 66 1.37601 66 0.88644Z"
        fill="url(#paint0_linear_1401_22731)"
    ></path>
    <defs>
        <linearGradient
            id="paint0_linear_1401_22731"
            x1="20"
            y1="97"
            x2="81.1017"
            y2="10.6271"
            gradientUnits="userSpaceOnUse"
        >
            <stop stop-color="#D93831"></stop>
            <stop
                offset="1"
                stop-color="#D93831"
                stop-opacity="0"
            ></stop>
        </linearGradient>
    </defs>
</svg>