<?xml version="1.0" encoding="utf-8"?>
<svg version="1.1" xmlns="http://www.w3.org/2000/svg" xmlns:xlink="http://www.w3.org/1999/xlink" x="0px" y="0px"
	 viewBox="0 0 944.2 85.1" style="enable-background:new 0 0 944.2 85.1;" xml:space="preserve">
<g>
	<g>
		<path fill="#FFF" d="M781.9,85.1c-8.8,0-16.1-2.3-21.7-6.7c-5.7-4.4-9.1-11-9.5-18.2l-0.1-2.4h14.3l0.2,2.1c0.4,3.5,2.2,6.5,5.1,8.4
			c3.3,2.3,7.5,3.4,12.5,3.4c4.7,0,8.6-1.1,11.6-3.3c2.8-2.1,4.2-4.5,4.2-7.6c0.1-2.5-1-4.7-2.8-6.3c-2.1-1.9-5.7-3.5-10.5-4.7
			l-10-2.6c-7.5-1.9-13.2-4.7-16.8-8.3c-3.7-3.7-5.6-8.6-5.6-14.5c-0.1-6.9,3.1-13.5,8.6-17.7c5.5-4.4,12.6-6.6,21.2-6.6
			c8.2,0,15.2,2.3,20.7,6.7c5.5,4.3,8.7,10.8,8.8,17.7l0,2.4H798l-0.2-2.2c-0.2-3.2-1.9-6.2-4.5-8.2c-2.7-2.1-6.4-3.1-10.9-3.1
			c-4.5,0-8.2,1-10.9,3.1c-2.5,1.7-3.9,4.4-3.8,7.4c0,2.2,0.9,4.2,2.6,5.4c2.1,1.7,5.6,3.2,10.6,4.5L789,36
			c8.5,2.1,14.5,4.9,18.4,8.6c4,3.8,6,8.8,6,15c0,7.8-2.9,14.1-8.7,18.7C799,82.8,791.3,85.1,781.9,85.1z M708.6,85.1
			c-10.1,0-18.2-2.9-24.2-8.6c-6-5.7-9-13.2-9-22.3V0.1h14.3v53.5c0,5.4,1.6,9.7,4.9,13c3.3,3.3,7.9,4.9,13.9,4.9s10.6-1.6,13.9-4.9
			c3.3-3.3,4.9-7.6,4.9-13V0.1h14.4v54.1c0,9.1-3,16.6-9,22.3C726.8,82.2,718.7,85.1,708.6,85.1z M912.8,85.1
			c-8.8,0-16.1-2.3-21.7-6.7c-5.7-4.4-9.1-11-9.5-18.2l-0.1-2.4l14.3,0l0.2,2.1c0.4,3.5,2.2,6.5,5.1,8.4c3.3,2.3,7.5,3.4,12.5,3.4
			c4.7,0,8.6-1.1,11.6-3.3c2.8-2.1,4.2-4.5,4.2-7.6c0.1-2.5-1-4.7-2.8-6.3c-2.1-1.9-5.7-3.5-10.5-4.7l-10-2.6
			c-7.6-1.9-13.2-4.7-16.8-8.3c-3.7-3.7-5.6-8.6-5.6-14.5c-0.1-6.9,3.1-13.5,8.6-17.7c5.5-4.4,12.6-6.6,21.2-6.6
			c8.2,0,15.2,2.3,20.7,6.7c5.5,4.3,8.7,10.8,8.8,17.7l0,2.4h-14.2l-0.2-2.2c-0.2-3.2-1.9-6.2-4.5-8.2c-2.7-2.1-6.4-3.1-10.9-3.1
			c-4.5,0-8.2,1-10.9,3.1c-2.5,1.7-3.9,4.4-3.8,7.4c0,2.2,0.9,4.2,2.6,5.4c2.1,1.7,5.6,3.2,10.6,4.5l8.1,2.2
			c8.5,2.1,14.5,4.9,18.4,8.6c4,3.8,6,8.8,6,15c0,7.8-2.9,14.1-8.7,18.7C929.8,82.8,922.2,85.1,912.8,85.1z M627.6,85.1
			c-11.7,0-21.1-3.9-27.9-11.6c-6.8-7.6-10.2-18-10.2-30.9c0-12.9,3.4-23.3,10.2-30.9C606.6,4,616,0.1,627.6,0.1
			c11.7,0,21.1,3.9,27.9,11.6c6.8,7.6,10.2,18,10.2,30.9c0,12.9-3.4,23.3-10.2,30.9C648.7,81.2,639.3,85.1,627.6,85.1z M579.9,85.1
			h-14.3V48.4h-38v36.7h-14.3v-85h14.3V35h38V0.1h14.3V85.1z M875,85.1h-52.8v-85H875v13.4h-38.5v21.6H873v13.3h-36.5v23.4H875V85.1
			z M627.6,13.7c-7.3,0-12.9,2.5-17.1,7.6c-4.3,5.2-6.4,12.3-6.4,21.3c0,9,2.2,16.1,6.4,21.3c4.2,5.1,9.8,7.6,17.1,7.6c0,0,0,0,0,0
			c7.3,0,12.9-2.5,17.1-7.6c4.3-5.2,6.4-12.3,6.4-21.3c0-9-2.2-16.2-6.4-21.3l0,0C640.5,16.2,634.9,13.7,627.6,13.7z"/>
	</g>
	<g id="logoBerlin" transform="translate(0 0.919)">
		<path fill="#FFF" d="M255.4,84.2h-19.1l-24.8-28.4h-15.4v28.4h-16V-0.9c13.5,0,27,0.1,40.4,0.1c20,0.1,30.6,13.5,30.6,28.2
			c0,11.7-5.3,23.4-21.5,26.7l25.7,29V84.2z M196.1,14.1v27.2h24.4c10.2,0,14.6-6.8,14.6-13.6s-4.5-13.6-14.6-13.6L196.1,14.1z"/>
		<path fill="#FFF" d="M291.5-0.8v70.2h43.7v14.8h-59.7v-85L291.5-0.8z"/>
		<path fill="#FFF" d="M355.5,84.2v-85h15.9v85H355.5z"/>
		<path fill="#FFF" d="M448.3-0.8h16v85h-18.1l-36.5-57.7v57.7h-16v-85h18.1l36.5,57.7L448.3-0.8z"/>
		<path fill="#FFF" d="M69.6,23.5c0,6.6-3.2,13.2-11,16.7c10,3,13.6,12.7,13.6,18.1c0,18.9-14.2,25.9-31.8,25.9H0v-85h40.3
			C57.1-0.8,69.6,6.4,69.6,23.5z M15.8,33.3h24.5c10.1,0,13.3-3.8,13.3-9.8s-3.2-9.8-13.3-9.8H15.8L15.8,33.3z M15.8,69.3h24.5
			c6.6,0,15.9-2.9,15.9-10.9c0-7.6-9.3-10.9-15.9-10.9H15.8L15.8,69.3z"/>
		<g transform="translate(90.523 0.121)">
			<rect fill="#FFF" id="Rectángulo_4120" x="-0.3" y="34.3" width="67.7" height="14.4"/>
			<rect fill="#FFF" id="Rectángulo_4121" x="-0.3" y="-0.9" width="67.7" height="14.4"/>
			<rect fill="#FFF" id="Rectángulo_4122" x="-0.3" y="69.6" width="67.7" height="14.4"/>
		</g>
	</g>
</g>
</svg>
