<svg xmlns="http://www.w3.org/2000/svg" width="22.448" height="22.448" viewBox="0 0 22.448 22.448">
  <path id="Icon_awesome-whatsapp" data-name="Icon awesome-whatsapp" d="M19.086,5.512A11.127,11.127,0,0,0,1.578,18.936L0,24.7,5.9,23.15A11.09,11.09,0,0,0,11.214,24.5h.005A11.231,11.231,0,0,0,22.448,13.379,11.168,11.168,0,0,0,19.086,5.512ZM11.219,22.629a9.229,9.229,0,0,1-4.71-1.288l-.336-.2-3.5.917.932-3.412-.22-.351a9.264,9.264,0,1,1,17.182-4.916,9.349,9.349,0,0,1-9.35,9.25ZM16.29,15.7c-.276-.14-1.644-.812-1.9-.9s-.441-.14-.626.14-.717.9-.882,1.092-.326.21-.6.07A7.566,7.566,0,0,1,8.5,12.8c-.286-.491.286-.456.817-1.518a.515.515,0,0,0-.025-.486c-.07-.14-.626-1.508-.857-2.064-.225-.541-.456-.466-.626-.476s-.346-.01-.531-.01a1.03,1.03,0,0,0-.742.346,3.123,3.123,0,0,0-.972,2.32,5.445,5.445,0,0,0,1.132,2.876,12.42,12.42,0,0,0,4.75,4.2,5.439,5.439,0,0,0,3.337.7,2.847,2.847,0,0,0,1.874-1.323,2.325,2.325,0,0,0,.16-1.323C16.751,15.909,16.565,15.839,16.29,15.7Z" transform="translate(0 -2.25)" fill="#ccc"/>
</svg>
